<mxfile host="65bd71144e">
    <diagram id="JI69Sy16UBji_XFjZy_T" name="Page-1">
        <mxGraphModel dx="828" dy="1952" grid="1" gridSize="10" guides="1" tooltips="1" connect="1" arrows="1" fold="1" page="0" pageScale="1" pageWidth="827" pageHeight="1169" background="none" math="0" shadow="1">
            <root>
                <mxCell id="0"/>
                <mxCell id="1" parent="0"/>
                <mxCell id="4" value="" style="rounded=0;whiteSpace=wrap;html=1;fillColor=default;" parent="1" vertex="1">
                    <mxGeometry x="1600" width="1120" height="1770" as="geometry"/>
                </mxCell>
                <mxCell id="6" value="VPC" style="outlineConnect=0;dashed=0;verticalLabelPosition=bottom;verticalAlign=top;align=center;html=1;shape=mxgraph.aws3.vpc;fillColor=#F58536;gradientColor=none;" parent="1" vertex="1">
                    <mxGeometry x="2660" y="10" width="47.5" height="57" as="geometry"/>
                </mxCell>
                <mxCell id="7" value="DevOps" style="shape=umlActor;verticalLabelPosition=bottom;verticalAlign=top;html=1;outlineConnect=0;fillColor=default;" parent="1" vertex="1">
                    <mxGeometry x="1857.5" y="-310" width="45" height="90" as="geometry"/>
                </mxCell>
                <mxCell id="58" style="edgeStyle=none;html=1;exitX=0.5;exitY=0.5;exitDx=0;exitDy=0;exitPerimeter=0;entryX=0.5;entryY=0;entryDx=0;entryDy=0;fontSize=15;fontColor=#FFFFFF;" parent="1" source="8" target="53" edge="1">
                    <mxGeometry relative="1" as="geometry"/>
                </mxCell>
                <mxCell id="59" style="edgeStyle=none;html=1;exitX=0.5;exitY=0.5;exitDx=0;exitDy=0;exitPerimeter=0;entryX=0.5;entryY=0;entryDx=0;entryDy=0;fontSize=15;fontColor=#FFFFFF;" parent="1" source="8" target="54" edge="1">
                    <mxGeometry relative="1" as="geometry"/>
                </mxCell>
                <mxCell id="8" value="Customers" style="shape=umlActor;verticalLabelPosition=bottom;verticalAlign=top;html=1;outlineConnect=0;fillColor=default;" parent="1" vertex="1">
                    <mxGeometry x="2150.25" y="-550" width="30" height="60" as="geometry"/>
                </mxCell>
                <mxCell id="15" value="&lt;font style=&quot;font-size: 15px;&quot;&gt;Availability zone - A&lt;/font&gt;" style="sketch=0;outlineConnect=0;gradientColor=none;html=1;whiteSpace=wrap;fontSize=12;fontStyle=0;shape=mxgraph.aws4.group;grIcon=mxgraph.aws4.group_availability_zone;strokeColor=#E8E8E8;fillColor=none;verticalAlign=top;align=left;spacingLeft=30;fontColor=#E8E8E8;dashed=1;" parent="1" vertex="1">
                    <mxGeometry x="1630" y="270" width="380" height="1460" as="geometry"/>
                </mxCell>
                <mxCell id="16" value="&lt;font style=&quot;font-size: 15px;&quot;&gt;Availability zone - B&lt;/font&gt;" style="sketch=0;outlineConnect=0;gradientColor=none;html=1;whiteSpace=wrap;fontSize=12;fontStyle=0;shape=mxgraph.aws4.group;grIcon=mxgraph.aws4.group_availability_zone;strokeColor=#E8E8E8;fillColor=none;verticalAlign=top;align=left;spacingLeft=30;fontColor=#E8E8E8;dashed=1;" parent="1" vertex="1">
                    <mxGeometry x="2300" y="270" width="380" height="1460" as="geometry"/>
                </mxCell>
                <mxCell id="17" value="&lt;font style=&quot;font-size: 15px;&quot;&gt;Private3 subnet - 10.0.3.0/24 - Proxy&lt;/font&gt;" style="points=[[0,0],[0.25,0],[0.5,0],[0.75,0],[1,0],[1,0.25],[1,0.5],[1,0.75],[1,1],[0.75,1],[0.5,1],[0.25,1],[0,1],[0,0.75],[0,0.5],[0,0.25]];outlineConnect=0;gradientColor=none;html=1;whiteSpace=wrap;fontSize=12;fontStyle=0;container=1;pointerEvents=0;collapsible=0;recursiveResize=0;shape=mxgraph.aws4.group;grIcon=mxgraph.aws4.group_security_group;grStroke=0;strokeColor=#147EBA;fillColor=#E6F2F8;verticalAlign=top;align=left;spacingLeft=30;fontColor=#147EBA;dashed=0;" parent="1" vertex="1">
                    <mxGeometry x="1640" y="625" width="350" height="230" as="geometry"/>
                </mxCell>
                <mxCell id="18" value="&lt;font style=&quot;font-size: 15px;&quot;&gt;Public1 subnet - 10.0.1.0/24&lt;/font&gt;" style="points=[[0,0],[0.25,0],[0.5,0],[0.75,0],[1,0],[1,0.25],[1,0.5],[1,0.75],[1,1],[0.75,1],[0.5,1],[0.25,1],[0,1],[0,0.75],[0,0.5],[0,0.25]];outlineConnect=0;gradientColor=none;html=1;whiteSpace=wrap;fontSize=12;fontStyle=0;container=1;pointerEvents=0;collapsible=0;recursiveResize=0;shape=mxgraph.aws4.group;grIcon=mxgraph.aws4.group_security_group;grStroke=0;strokeColor=#248814;fillColor=#E9F3E6;verticalAlign=top;align=left;spacingLeft=30;fontColor=#248814;dashed=0;" parent="1" vertex="1">
                    <mxGeometry x="1640" y="373" width="359" height="207" as="geometry"/>
                </mxCell>
                <mxCell id="24" value="" style="outlineConnect=0;dashed=0;verticalLabelPosition=bottom;verticalAlign=top;align=center;html=1;shape=mxgraph.aws3.vpc_nat_gateway;fillColor=#F58534;gradientColor=none;strokeWidth=3;fontSize=20;" parent="18" vertex="1">
                    <mxGeometry x="310" y="-22.13" width="49" height="51.13" as="geometry"/>
                </mxCell>
                <mxCell id="31" value="&lt;font color=&quot;#000000&quot;&gt;Bastion&lt;/font&gt;" style="outlineConnect=0;dashed=0;verticalLabelPosition=bottom;verticalAlign=top;align=center;html=1;shape=mxgraph.aws3.instance;fillColor=#F58534;gradientColor=none;strokeWidth=3;fontSize=20;" parent="18" vertex="1">
                    <mxGeometry x="210" y="72" width="60" height="63" as="geometry"/>
                </mxCell>
                <mxCell id="37" value="" style="outlineConnect=0;dashed=0;verticalLabelPosition=bottom;verticalAlign=top;align=center;html=1;shape=mxgraph.aws3.route_table;fillColor=#F58536;gradientColor=none;strokeWidth=3;fontSize=15;fontColor=#000000;" parent="18" vertex="1">
                    <mxGeometry x="10" y="157" width="42.39" height="39" as="geometry"/>
                </mxCell>
                <mxCell id="19" value="&lt;span style=&quot;font-size: 15px;&quot;&gt;Public2 subnet - 10.0.2.0/24&lt;/span&gt;" style="points=[[0,0],[0.25,0],[0.5,0],[0.75,0],[1,0],[1,0.25],[1,0.5],[1,0.75],[1,1],[0.75,1],[0.5,1],[0.25,1],[0,1],[0,0.75],[0,0.5],[0,0.25]];outlineConnect=0;gradientColor=none;html=1;whiteSpace=wrap;fontSize=12;fontStyle=0;container=1;pointerEvents=0;collapsible=0;recursiveResize=0;shape=mxgraph.aws4.group;grIcon=mxgraph.aws4.group_security_group;grStroke=0;strokeColor=#248814;fillColor=#e9f3e6;verticalAlign=top;align=left;spacingLeft=30;fontColor=#248814;dashed=0;strokeWidth=3;perimeterSpacing=3;" parent="1" vertex="1">
                    <mxGeometry x="2315" y="385" width="354" height="195" as="geometry"/>
                </mxCell>
                <mxCell id="26" value="" style="outlineConnect=0;dashed=0;verticalLabelPosition=bottom;verticalAlign=top;align=center;html=1;shape=mxgraph.aws3.vpc_nat_gateway;fillColor=#F58534;gradientColor=none;strokeWidth=3;fontSize=20;" parent="19" vertex="1">
                    <mxGeometry x="305" y="-25.560000000000002" width="49" height="51.13" as="geometry"/>
                </mxCell>
                <mxCell id="38" value="" style="outlineConnect=0;dashed=0;verticalLabelPosition=bottom;verticalAlign=top;align=center;html=1;shape=mxgraph.aws3.route_table;fillColor=#F58536;gradientColor=none;strokeWidth=3;fontSize=15;fontColor=#000000;" parent="19" vertex="1">
                    <mxGeometry x="305" y="145" width="42.39" height="39" as="geometry"/>
                </mxCell>
                <mxCell id="20" value="&lt;span style=&quot;font-size: 15px;&quot;&gt;Private4 subnet - 10.0.4.0/24 - Proxy&lt;/span&gt;" style="points=[[0,0],[0.25,0],[0.5,0],[0.75,0],[1,0],[1,0.25],[1,0.5],[1,0.75],[1,1],[0.75,1],[0.5,1],[0.25,1],[0,1],[0,0.75],[0,0.5],[0,0.25]];outlineConnect=0;gradientColor=none;html=1;whiteSpace=wrap;fontSize=12;fontStyle=0;container=1;pointerEvents=0;collapsible=0;recursiveResize=0;shape=mxgraph.aws4.group;grIcon=mxgraph.aws4.group_security_group;grStroke=0;strokeColor=#147EBA;fillColor=#E6F2F8;verticalAlign=top;align=left;spacingLeft=30;fontColor=#147EBA;dashed=0;" parent="1" vertex="1">
                    <mxGeometry x="2315" y="625" width="350" height="230" as="geometry"/>
                </mxCell>
                <mxCell id="61" value="Nginx Proxy" style="shadow=0;dashed=0;html=1;strokeColor=none;fillColor=#4495D1;labelPosition=center;verticalLabelPosition=bottom;verticalAlign=top;align=center;outlineConnect=0;shape=mxgraph.veeam.proxy_server;strokeWidth=3;fontSize=20;fontColor=#000000;" parent="20" vertex="1">
                    <mxGeometry x="195" y="83" width="76" height="72" as="geometry"/>
                </mxCell>
                <mxCell id="21" value="&lt;span style=&quot;font-size: 15px;&quot;&gt;Private5 subnet - 10.0.5.0/24 - Compute&lt;/span&gt;" style="points=[[0,0],[0.25,0],[0.5,0],[0.75,0],[1,0],[1,0.25],[1,0.5],[1,0.75],[1,1],[0.75,1],[0.5,1],[0.25,1],[0,1],[0,0.75],[0,0.5],[0,0.25]];outlineConnect=0;gradientColor=none;html=1;whiteSpace=wrap;fontSize=12;fontStyle=0;container=1;pointerEvents=0;collapsible=0;recursiveResize=0;shape=mxgraph.aws4.group;grIcon=mxgraph.aws4.group_security_group;grStroke=0;strokeColor=#147EBA;fillColor=#E6F2F8;verticalAlign=top;align=left;spacingLeft=30;fontColor=#147EBA;dashed=0;" parent="1" vertex="1">
                    <mxGeometry x="1640" y="1017.5" width="350" height="230" as="geometry"/>
                </mxCell>
                <mxCell id="40" value="WordPress" style="outlineConnect=0;dashed=0;verticalLabelPosition=bottom;verticalAlign=top;align=center;html=1;shape=mxgraph.aws3.ec2;fillColor=#F58534;gradientColor=none;strokeColor=#be6319;strokeWidth=3;fontSize=15;fontColor=#000000;" parent="21" vertex="1">
                    <mxGeometry x="20" y="68.5" width="76.5" height="93" as="geometry"/>
                </mxCell>
                <mxCell id="42" value="Tooling" style="outlineConnect=0;dashed=0;verticalLabelPosition=bottom;verticalAlign=top;align=center;html=1;shape=mxgraph.aws3.ec2;fillColor=#F58534;gradientColor=none;strokeColor=#be6319;strokeWidth=3;fontSize=15;fontColor=#000000;" parent="21" vertex="1">
                    <mxGeometry x="250" y="68.5" width="76.5" height="93" as="geometry"/>
                </mxCell>
                <mxCell id="65" value="&lt;font color=&quot;#3333ff&quot;&gt;ASG&lt;/font&gt;" style="rounded=1;whiteSpace=wrap;html=1;strokeWidth=3;fontSize=20;fillColor=none;dashed=1;strokeColor=#3333FF;" parent="21" vertex="1">
                    <mxGeometry x="7" y="64.5" width="110" height="125" as="geometry"/>
                </mxCell>
                <mxCell id="66" value="&lt;font color=&quot;#ff33ff&quot;&gt;ASG&lt;/font&gt;" style="rounded=1;whiteSpace=wrap;html=1;strokeWidth=3;fontSize=20;fillColor=none;dashed=1;strokeColor=#FF33FF;" parent="21" vertex="1">
                    <mxGeometry x="233.25" y="62.5" width="110" height="125" as="geometry"/>
                </mxCell>
                <mxCell id="22" value="&lt;span style=&quot;font-size: 15px;&quot;&gt;Private6 subnet - 10.0.6.0/24 - Compute&lt;/span&gt;" style="points=[[0,0],[0.25,0],[0.5,0],[0.75,0],[1,0],[1,0.25],[1,0.5],[1,0.75],[1,1],[0.75,1],[0.5,1],[0.25,1],[0,1],[0,0.75],[0,0.5],[0,0.25]];outlineConnect=0;gradientColor=none;html=1;whiteSpace=wrap;fontSize=12;fontStyle=0;container=1;pointerEvents=0;collapsible=0;recursiveResize=0;shape=mxgraph.aws4.group;grIcon=mxgraph.aws4.group_security_group;grStroke=0;strokeColor=#147EBA;fillColor=#E6F2F8;verticalAlign=top;align=left;spacingLeft=30;fontColor=#147EBA;dashed=0;" parent="1" vertex="1">
                    <mxGeometry x="2315" y="1017.5" width="350" height="230" as="geometry"/>
                </mxCell>
                <mxCell id="43" value="WordPress" style="outlineConnect=0;dashed=0;verticalLabelPosition=bottom;verticalAlign=top;align=center;html=1;shape=mxgraph.aws3.ec2;fillColor=#F58534;gradientColor=none;strokeColor=#be6319;strokeWidth=3;fontSize=15;fontColor=#000000;" parent="22" vertex="1">
                    <mxGeometry x="25" y="68.5" width="76.5" height="93" as="geometry"/>
                </mxCell>
                <mxCell id="44" value="Tooling" style="outlineConnect=0;dashed=0;verticalLabelPosition=bottom;verticalAlign=top;align=center;html=1;shape=mxgraph.aws3.ec2;fillColor=#F58534;gradientColor=none;strokeColor=#be6319;strokeWidth=3;fontSize=15;fontColor=#000000;" parent="22" vertex="1">
                    <mxGeometry x="235" y="68.5" width="76.5" height="93" as="geometry"/>
                </mxCell>
                <mxCell id="47" value="EFS" style="outlineConnect=0;dashed=0;verticalLabelPosition=bottom;verticalAlign=top;align=center;html=1;shape=mxgraph.aws3.efs;fillColor=#E05243;gradientColor=none;strokeColor=#be6319;strokeWidth=3;fontSize=15;fontColor=#000000;" parent="22" vertex="1">
                    <mxGeometry x="149.70000000000005" y="98.5" width="50.59" height="61.5" as="geometry"/>
                </mxCell>
                <mxCell id="67" value="&lt;font color=&quot;#3333ff&quot;&gt;ASG&lt;/font&gt;" style="rounded=1;whiteSpace=wrap;html=1;strokeWidth=3;fontSize=20;fillColor=none;dashed=1;strokeColor=#3333FF;" parent="22" vertex="1">
                    <mxGeometry x="8.25" y="66.75" width="110" height="125" as="geometry"/>
                </mxCell>
                <mxCell id="68" value="&lt;font color=&quot;#ff33ff&quot;&gt;ASG&lt;/font&gt;" style="rounded=1;whiteSpace=wrap;html=1;strokeWidth=3;fontSize=20;fillColor=none;dashed=1;strokeColor=#FF33FF;" parent="22" vertex="1">
                    <mxGeometry x="215" y="66.75" width="110" height="125" as="geometry"/>
                </mxCell>
                <mxCell id="23" value="Internet Gateway" style="outlineConnect=0;dashed=0;verticalLabelPosition=bottom;verticalAlign=top;align=center;html=1;shape=mxgraph.aws3.internet_gateway;fillColor=#F58534;gradientColor=none;strokeWidth=3;fontSize=20;" parent="1" vertex="1">
                    <mxGeometry x="2510" y="-40" width="69" height="72" as="geometry"/>
                </mxCell>
                <mxCell id="72" style="edgeStyle=none;html=1;exitX=0.5;exitY=1;exitDx=0;exitDy=0;exitPerimeter=0;strokeColor=#FF9999;strokeWidth=2;fontSize=15;fontColor=#FFFFFF;" parent="1" source="25" target="71" edge="1">
                    <mxGeometry relative="1" as="geometry"/>
                </mxCell>
                <mxCell id="25" value="Public ALB" style="outlineConnect=0;dashed=0;verticalLabelPosition=bottom;verticalAlign=top;align=center;html=1;shape=mxgraph.aws3.application_load_balancer;fillColor=#F58534;gradientColor=none;strokeWidth=3;fontSize=20;" parent="1" vertex="1">
                    <mxGeometry x="2130" y="138" width="69" height="72" as="geometry"/>
                </mxCell>
                <mxCell id="81" style="edgeStyle=none;html=1;exitX=0.5;exitY=1;exitDx=0;exitDy=0;entryX=0.5;entryY=0;entryDx=0;entryDy=0;entryPerimeter=0;strokeColor=#FF9999;strokeWidth=2;fontSize=15;fontColor=#FFFFFF;" parent="1" source="29" target="77" edge="1">
                    <mxGeometry relative="1" as="geometry"/>
                </mxCell>
                <mxCell id="29" value="AutoScaling Group" style="rounded=1;whiteSpace=wrap;html=1;strokeWidth=3;fontSize=20;fillColor=none;dashed=1;strokeColor=#be6319;" parent="1" vertex="1">
                    <mxGeometry x="1670" y="687.5" width="970" height="125" as="geometry"/>
                </mxCell>
                <mxCell id="30" value="" style="sketch=0;points=[[0,0,0],[0.25,0,0],[0.5,0,0],[0.75,0,0],[1,0,0],[0,1,0],[0.25,1,0],[0.5,1,0],[0.75,1,0],[1,1,0],[0,0.25,0],[0,0.5,0],[0,0.75,0],[1,0.25,0],[1,0.5,0],[1,0.75,0]];outlineConnect=0;fontColor=#232F3E;gradientColor=#F78E04;gradientDirection=north;fillColor=#D05C17;strokeColor=#ffffff;dashed=0;verticalLabelPosition=bottom;verticalAlign=top;align=center;html=1;fontSize=12;fontStyle=0;aspect=fixed;shape=mxgraph.aws4.resourceIcon;resIcon=mxgraph.aws4.auto_scaling2;strokeWidth=3;" parent="1" vertex="1">
                    <mxGeometry x="2127.5" y="663.5" width="55" height="55" as="geometry"/>
                </mxCell>
                <mxCell id="32" value="&lt;span style=&quot;font-size: 15px;&quot;&gt;Private7 subnet - 10.0.7.0/24 - Data&lt;/span&gt;" style="points=[[0,0],[0.25,0],[0.5,0],[0.75,0],[1,0],[1,0.25],[1,0.5],[1,0.75],[1,1],[0.75,1],[0.5,1],[0.25,1],[0,1],[0,0.75],[0,0.5],[0,0.25]];outlineConnect=0;gradientColor=none;html=1;whiteSpace=wrap;fontSize=12;fontStyle=0;container=1;pointerEvents=0;collapsible=0;recursiveResize=0;shape=mxgraph.aws4.group;grIcon=mxgraph.aws4.group_security_group;grStroke=0;strokeColor=#147EBA;fillColor=#E6F2F8;verticalAlign=top;align=left;spacingLeft=30;fontColor=#147EBA;dashed=0;" parent="1" vertex="1">
                    <mxGeometry x="1644" y="1445" width="350" height="230" as="geometry"/>
                </mxCell>
                <mxCell id="45" value="MySQL Aurora - Write/Read" style="outlineConnect=0;dashed=0;verticalLabelPosition=bottom;verticalAlign=top;align=center;html=1;shape=mxgraph.aws3.rds;fillColor=#2E73B8;gradientColor=none;strokeColor=#be6319;strokeWidth=3;fontSize=15;fontColor=#000000;" parent="32" vertex="1">
                    <mxGeometry x="126" y="80" width="72" height="81" as="geometry"/>
                </mxCell>
                <mxCell id="33" value="&lt;span style=&quot;font-size: 15px;&quot;&gt;Private8 subnet - 10.0.8.0/24 - Data&lt;/span&gt;" style="points=[[0,0],[0.25,0],[0.5,0],[0.75,0],[1,0],[1,0.25],[1,0.5],[1,0.75],[1,1],[0.75,1],[0.5,1],[0.25,1],[0,1],[0,0.75],[0,0.5],[0,0.25]];outlineConnect=0;gradientColor=none;html=1;whiteSpace=wrap;fontSize=12;fontStyle=0;container=1;pointerEvents=0;collapsible=0;recursiveResize=0;shape=mxgraph.aws4.group;grIcon=mxgraph.aws4.group_security_group;grStroke=0;strokeColor=#147EBA;fillColor=#E6F2F8;verticalAlign=top;align=left;spacingLeft=30;fontColor=#147EBA;dashed=0;" parent="1" vertex="1">
                    <mxGeometry x="2319" y="1445" width="350" height="230" as="geometry"/>
                </mxCell>
                <mxCell id="46" value="MySQL Aurora - Read Only" style="outlineConnect=0;dashed=0;verticalLabelPosition=bottom;verticalAlign=top;align=center;html=1;shape=mxgraph.aws3.rds;fillColor=#2E73B8;gradientColor=none;strokeColor=#be6319;strokeWidth=3;fontSize=15;fontColor=#000000;" parent="33" vertex="1">
                    <mxGeometry x="125" y="80" width="72" height="81" as="geometry"/>
                </mxCell>
                <mxCell id="34" value="&lt;font color=&quot;#000000&quot;&gt;Bastion&lt;/font&gt;" style="outlineConnect=0;dashed=0;verticalLabelPosition=bottom;verticalAlign=top;align=center;html=1;shape=mxgraph.aws3.instance;fillColor=#F58534;gradientColor=none;strokeWidth=3;fontSize=20;" parent="1" vertex="1">
                    <mxGeometry x="2450" y="445" width="60" height="63" as="geometry"/>
                </mxCell>
                <mxCell id="35" value="Nginx Proxy" style="shadow=0;dashed=0;html=1;strokeColor=none;fillColor=#4495D1;labelPosition=center;verticalLabelPosition=bottom;verticalAlign=top;align=center;outlineConnect=0;shape=mxgraph.veeam.proxy_server;strokeWidth=3;fontSize=20;fontColor=#000000;" parent="1" vertex="1">
                    <mxGeometry x="1870" y="708" width="76" height="72" as="geometry"/>
                </mxCell>
                <mxCell id="36" value="Nginx Proxy" style="shadow=0;dashed=0;html=1;strokeColor=none;fillColor=#4495D1;labelPosition=center;verticalLabelPosition=bottom;verticalAlign=top;align=center;outlineConnect=0;shape=mxgraph.veeam.proxy_server;strokeWidth=3;fontSize=20;fontColor=#000000;" parent="1" vertex="1">
                    <mxGeometry x="2347" y="708" width="76" height="72" as="geometry"/>
                </mxCell>
                <mxCell id="48" value="EFS" style="outlineConnect=0;dashed=0;verticalLabelPosition=bottom;verticalAlign=top;align=center;html=1;shape=mxgraph.aws3.efs;fillColor=#E05243;gradientColor=none;strokeColor=#be6319;strokeWidth=3;fontSize=15;fontColor=#000000;" parent="1" vertex="1">
                    <mxGeometry x="1799.71" y="1127.5" width="50.59" height="61.5" as="geometry"/>
                </mxCell>
                <mxCell id="60" style="edgeStyle=none;html=1;fontSize=15;fontColor=#FFFFFF;strokeWidth=2;" parent="1" source="49" target="25" edge="1">
                    <mxGeometry relative="1" as="geometry"/>
                </mxCell>
                <mxCell id="84" value="Listener HTTP/HTTPS&lt;br&gt;(Ports 80/443)" style="edgeLabel;html=1;align=center;verticalAlign=middle;resizable=0;points=[];fontSize=15;fontColor=#FFFFFF;" parent="60" vertex="1" connectable="0">
                    <mxGeometry x="0.7386" relative="1" as="geometry">
                        <mxPoint as="offset"/>
                    </mxGeometry>
                </mxCell>
                <mxCell id="49" value="Route 53" style="outlineConnect=0;dashed=0;verticalLabelPosition=bottom;verticalAlign=top;align=center;html=1;shape=mxgraph.aws3.route_53;fillColor=#F58536;gradientColor=none;strokeColor=#be6319;strokeWidth=3;fontSize=15;fontColor=#FFFFFF;" parent="1" vertex="1">
                    <mxGeometry x="2130" y="-285" width="70.5" height="85.5" as="geometry"/>
                </mxCell>
                <mxCell id="51" value="Nginx Proxy" style="shadow=0;dashed=0;html=1;strokeColor=none;fillColor=#4495D1;labelPosition=center;verticalLabelPosition=bottom;verticalAlign=top;align=center;outlineConnect=0;shape=mxgraph.veeam.proxy_server;strokeWidth=3;fontSize=20;fontColor=#000000;" parent="1" vertex="1">
                    <mxGeometry x="1723.71" y="705" width="76" height="72" as="geometry"/>
                </mxCell>
                <mxCell id="56" style="edgeStyle=none;html=1;exitX=0.5;exitY=1;exitDx=0;exitDy=0;fontSize=15;fontColor=#FFFFFF;" parent="1" source="53" target="49" edge="1">
                    <mxGeometry relative="1" as="geometry"/>
                </mxCell>
                <mxCell id="53" value="&lt;font color=&quot;#ffffff&quot;&gt;Wordpress Website&amp;nbsp; Domain&lt;/font&gt;" style="text;html=1;strokeColor=none;fillColor=none;align=center;verticalAlign=middle;whiteSpace=wrap;rounded=0;dashed=1;strokeWidth=3;fontSize=15;fontColor=#000000;" parent="1" vertex="1">
                    <mxGeometry x="1930" y="-410" width="230" height="30" as="geometry"/>
                </mxCell>
                <mxCell id="57" style="edgeStyle=none;html=1;exitX=0.5;exitY=1;exitDx=0;exitDy=0;entryX=0.71;entryY=0.09;entryDx=0;entryDy=0;entryPerimeter=0;fontSize=15;fontColor=#FFFFFF;" parent="1" source="54" target="49" edge="1">
                    <mxGeometry relative="1" as="geometry"/>
                </mxCell>
                <mxCell id="54" value="&lt;font color=&quot;#ffffff&quot;&gt;Tooling Website Domain&lt;/font&gt;" style="text;html=1;strokeColor=none;fillColor=none;align=center;verticalAlign=middle;whiteSpace=wrap;rounded=0;dashed=1;strokeWidth=3;fontSize=15;fontColor=#000000;" parent="1" vertex="1">
                    <mxGeometry x="2189" y="-410" width="191" height="30" as="geometry"/>
                </mxCell>
                <mxCell id="69" style="edgeStyle=none;html=1;fontSize=15;fontColor=#000000;strokeColor=#FF9999;strokeWidth=2;" parent="1" source="65" target="45" edge="1">
                    <mxGeometry relative="1" as="geometry"/>
                </mxCell>
                <mxCell id="92" value="Write/Read" style="edgeLabel;html=1;align=center;verticalAlign=middle;resizable=0;points=[];fontSize=15;fontColor=#FF33FF;" parent="69" vertex="1" connectable="0">
                    <mxGeometry x="-0.1807" relative="1" as="geometry">
                        <mxPoint as="offset"/>
                    </mxGeometry>
                </mxCell>
                <mxCell id="70" style="edgeStyle=none;html=1;strokeColor=#33FFFF;strokeWidth=2;fontSize=15;fontColor=#000000;" parent="1" source="45" target="46" edge="1">
                    <mxGeometry relative="1" as="geometry"/>
                </mxCell>
                <mxCell id="86" value="Data Replication" style="edgeLabel;html=1;align=center;verticalAlign=middle;resizable=0;points=[];fontSize=15;fontColor=#FFFFFF;" parent="70" vertex="1" connectable="0">
                    <mxGeometry x="-0.1429" y="-2" relative="1" as="geometry">
                        <mxPoint x="46" y="-2" as="offset"/>
                    </mxGeometry>
                </mxCell>
                <mxCell id="73" style="edgeStyle=none;html=1;strokeColor=#FF9999;strokeWidth=2;fontSize=15;fontColor=#FFFFFF;" parent="1" target="30" edge="1">
                    <mxGeometry relative="1" as="geometry">
                        <mxPoint x="2155" y="595" as="sourcePoint"/>
                    </mxGeometry>
                </mxCell>
                <mxCell id="71" value="&lt;font color=&quot;#ffffff&quot;&gt;Target Group (Nginx)&lt;/font&gt;" style="rounded=0;whiteSpace=wrap;html=1;strokeColor=#be6319;strokeWidth=3;fontSize=15;fontColor=#000000;fillColor=none;" parent="1" vertex="1">
                    <mxGeometry x="2095" y="536" width="120" height="60" as="geometry"/>
                </mxCell>
                <mxCell id="75" style="edgeStyle=none;html=1;strokeColor=#FF9999;strokeWidth=2;fontSize=15;fontColor=#FFFFFF;" parent="1" source="7" target="31" edge="1">
                    <mxGeometry relative="1" as="geometry"/>
                </mxCell>
                <mxCell id="82" style="edgeStyle=none;html=1;exitX=0.145;exitY=0.855;exitDx=0;exitDy=0;exitPerimeter=0;entryX=0.5;entryY=0;entryDx=0;entryDy=0;strokeColor=#FF9999;strokeWidth=2;fontSize=15;fontColor=#FFFFFF;" parent="1" source="77" target="79" edge="1">
                    <mxGeometry relative="1" as="geometry"/>
                </mxCell>
                <mxCell id="83" style="edgeStyle=none;html=1;exitX=0.855;exitY=0.855;exitDx=0;exitDy=0;exitPerimeter=0;strokeColor=#FF9999;strokeWidth=2;fontSize=15;fontColor=#FFFFFF;" parent="1" source="77" target="80" edge="1">
                    <mxGeometry relative="1" as="geometry"/>
                </mxCell>
                <mxCell id="77" value="Internal ALB" style="outlineConnect=0;dashed=0;verticalLabelPosition=bottom;verticalAlign=top;align=center;html=1;shape=mxgraph.aws3.application_load_balancer;fillColor=#F58534;gradientColor=none;strokeWidth=3;fontSize=20;" parent="1" vertex="1">
                    <mxGeometry x="2120.5" y="849" width="69" height="72" as="geometry"/>
                </mxCell>
                <mxCell id="95" style="edgeStyle=none;html=1;entryX=0.5;entryY=0;entryDx=0;entryDy=0;fillColor=#a20025;strokeColor=#6F0000;strokeWidth=4;" edge="1" parent="1" source="79" target="65">
                    <mxGeometry relative="1" as="geometry">
                        <Array as="points">
                            <mxPoint x="1770" y="980"/>
                        </Array>
                    </mxGeometry>
                </mxCell>
                <mxCell id="96" style="edgeStyle=none;html=1;exitX=1;exitY=0.5;exitDx=0;exitDy=0;entryX=0;entryY=0.5;entryDx=0;entryDy=0;strokeWidth=4;fillColor=#a20025;strokeColor=#6F0000;" edge="1" parent="1" source="79" target="67">
                    <mxGeometry relative="1" as="geometry">
                        <Array as="points">
                            <mxPoint x="2180" y="1140"/>
                        </Array>
                    </mxGeometry>
                </mxCell>
                <mxCell id="79" value="&lt;font color=&quot;#ffffff&quot;&gt;Target Group (Wordpress)&lt;/font&gt;" style="rounded=0;whiteSpace=wrap;html=1;strokeColor=#3333FF;strokeWidth=3;fontSize=15;fontColor=#000000;fillColor=none;" parent="1" vertex="1">
                    <mxGeometry x="2026" y="1004.5" width="120" height="60" as="geometry"/>
                </mxCell>
                <mxCell id="97" style="edgeStyle=none;html=1;strokeWidth=4;fillColor=#1ba1e2;strokeColor=#006EAF;" edge="1" parent="1" source="80" target="66">
                    <mxGeometry relative="1" as="geometry">
                        <Array as="points">
                            <mxPoint x="2050" y="1143"/>
                        </Array>
                    </mxGeometry>
                </mxCell>
                <mxCell id="98" style="edgeStyle=none;html=1;entryX=0.5;entryY=0;entryDx=0;entryDy=0;strokeWidth=4;fillColor=#1ba1e2;strokeColor=#006EAF;" edge="1" parent="1" source="80" target="68">
                    <mxGeometry relative="1" as="geometry">
                        <Array as="points">
                            <mxPoint x="2520" y="990"/>
                        </Array>
                    </mxGeometry>
                </mxCell>
                <mxCell id="80" value="&lt;font color=&quot;#ffffff&quot;&gt;Target Group (Tooling)&lt;/font&gt;" style="rounded=0;whiteSpace=wrap;html=1;strokeColor=#FF33FF;strokeWidth=3;fontSize=15;fontColor=#000000;fillColor=none;" parent="1" vertex="1">
                    <mxGeometry x="2166" y="1004.5" width="120" height="60" as="geometry"/>
                </mxCell>
                <mxCell id="85" style="edgeStyle=none;html=1;strokeColor=#FF9999;strokeWidth=2;fontSize=15;fontColor=#FFFFFF;" parent="1" source="66" target="45" edge="1">
                    <mxGeometry relative="1" as="geometry"/>
                </mxCell>
                <mxCell id="91" value="Write/Read" style="edgeLabel;html=1;align=center;verticalAlign=middle;resizable=0;points=[];fontSize=15;fontColor=#FF33FF;" parent="85" vertex="1" connectable="0">
                    <mxGeometry x="-0.14" relative="1" as="geometry">
                        <mxPoint y="1" as="offset"/>
                    </mxGeometry>
                </mxCell>
                <mxCell id="87" style="edgeStyle=none;html=1;strokeColor=#FF9999;strokeWidth=2;fontSize=15;fontColor=#FF33FF;" parent="1" source="67" target="45" edge="1">
                    <mxGeometry relative="1" as="geometry"/>
                </mxCell>
                <mxCell id="90" value="Write/Read" style="edgeLabel;html=1;align=center;verticalAlign=middle;resizable=0;points=[];fontSize=15;fontColor=#FF33FF;" parent="87" vertex="1" connectable="0">
                    <mxGeometry x="-0.0673" y="4" relative="1" as="geometry">
                        <mxPoint x="1" as="offset"/>
                    </mxGeometry>
                </mxCell>
                <mxCell id="88" style="edgeStyle=none;html=1;entryX=1;entryY=0.5;entryDx=0;entryDy=0;entryPerimeter=0;strokeColor=#FF9999;strokeWidth=2;fontSize=15;fontColor=#FF33FF;" parent="1" source="68" target="45" edge="1">
                    <mxGeometry relative="1" as="geometry"/>
                </mxCell>
                <mxCell id="89" value="Write/Read" style="edgeLabel;html=1;align=center;verticalAlign=middle;resizable=0;points=[];fontSize=15;fontColor=#FF33FF;" parent="88" vertex="1" connectable="0">
                    <mxGeometry x="0.0568" y="3" relative="1" as="geometry">
                        <mxPoint as="offset"/>
                    </mxGeometry>
                </mxCell>
            </root>
        </mxGraphModel>
    </diagram>
</mxfile>